<svg width="1200" height="900" viewBox="0 0 1200 900" fill="none" xmlns="http://www.w3.org/2000/svg" role="img" aria-labelledby="title desc">
  <title id="title">Chinese surname reference illustration</title>
  <desc id="desc">A warm reference-style illustration with Chinese surname characters, seal marks, and a lookup table.</desc>
  <rect width="1200" height="900" rx="32" fill="#F7F0E4"/>
  <rect x="74" y="74" width="1052" height="752" rx="28" fill="#FFF9F1" stroke="#E3D6C7" stroke-width="2"/>
  <circle cx="955" cy="210" r="104" fill="#F0E2CA"/>
  <circle cx="258" cy="232" r="80" fill="#F4E8D6"/>
  <rect x="180" y="176" width="408" height="548" rx="24" fill="#FFFFFF" stroke="#E3D6C7" stroke-width="3"/>
  <rect x="230" y="226" width="84" height="84" rx="18" fill="#FFF2E7" stroke="#DABF9A" stroke-width="3"/>
  <rect x="342" y="226" width="84" height="84" rx="18" fill="#FFF2E7" stroke="#DABF9A" stroke-width="3"/>
  <rect x="454" y="226" width="84" height="84" rx="18" fill="#FFF2E7" stroke="#DABF9A" stroke-width="3"/>
  <rect x="230" y="342" width="84" height="84" rx="18" fill="#FFF2E7" stroke="#DABF9A" stroke-width="3"/>
  <rect x="342" y="342" width="84" height="84" rx="18" fill="#FFF2E7" stroke="#DABF9A" stroke-width="3"/>
  <rect x="454" y="342" width="84" height="84" rx="18" fill="#FFF2E7" stroke="#DABF9A" stroke-width="3"/>
  <text x="272" y="284" text-anchor="middle" font-family="Georgia, 'Times New Roman', serif" font-size="44" font-weight="800" fill="#9F3528">李</text>
  <text x="384" y="284" text-anchor="middle" font-family="Georgia, 'Times New Roman', serif" font-size="44" font-weight="800" fill="#9F3528">王</text>
  <text x="496" y="284" text-anchor="middle" font-family="Georgia, 'Times New Roman', serif" font-size="44" font-weight="800" fill="#9F3528">张</text>
  <text x="272" y="400" text-anchor="middle" font-family="Georgia, 'Times New Roman', serif" font-size="44" font-weight="800" fill="#9F3528">刘</text>
  <text x="384" y="400" text-anchor="middle" font-family="Georgia, 'Times New Roman', serif" font-size="44" font-weight="800" fill="#9F3528">陈</text>
  <text x="496" y="400" text-anchor="middle" font-family="Georgia, 'Times New Roman', serif" font-size="44" font-weight="800" fill="#9F3528">杨</text>
  <rect x="230" y="490" width="308" height="22" rx="11" fill="#EAD8BC"/>
  <rect x="230" y="536" width="260" height="22" rx="11" fill="#EFE1CA"/>
  <rect x="230" y="582" width="286" height="22" rx="11" fill="#EAD8BC"/>
  <rect x="230" y="628" width="226" height="22" rx="11" fill="#EFE1CA"/>
  <rect x="660" y="206" width="334" height="446" rx="28" fill="#EFF7F3" stroke="#D0E0DA" stroke-width="3"/>
  <rect x="702" y="258" width="250" height="54" rx="14" fill="#FFFFFF"/>
  <rect x="702" y="346" width="250" height="54" rx="14" fill="#FFFFFF"/>
  <rect x="702" y="434" width="250" height="54" rx="14" fill="#FFFFFF"/>
  <rect x="702" y="522" width="250" height="54" rx="14" fill="#FFFFFF"/>
  <text x="726" y="292" font-family="Inter, Arial, sans-serif" font-size="24" font-weight="700" fill="#2C5E55">Pinyin</text>
  <text x="726" y="380" font-family="Inter, Arial, sans-serif" font-size="24" font-weight="700" fill="#2C5E55">Meaning</text>
  <text x="726" y="468" font-family="Inter, Arial, sans-serif" font-size="24" font-weight="700" fill="#2C5E55">Origin</text>
  <text x="726" y="556" font-family="Inter, Arial, sans-serif" font-size="24" font-weight="700" fill="#2C5E55">Variants</text>
  <circle cx="826" cy="694" r="58" fill="#9F3528"/>
  <text x="826" y="715" text-anchor="middle" font-family="Georgia, 'Times New Roman', serif" font-size="54" font-weight="800" fill="#FFF7EC">姓</text>
</svg>
